<svg xmlns="http://www.w3.org/2000/svg" xmlns:xlink="http://www.w3.org/1999/xlink" width="250" zoomAndPan="magnify" viewBox="0 0 187.5 50.249999" height="67" preserveAspectRatio="xMidYMid meet" version="1.2"><defs><clipPath id="672253fcc4"><path d="M 6.082031 6.871094 L 41.554688 6.871094 L 41.554688 42.34375 L 6.082031 42.34375 Z M 6.082031 6.871094 "/></clipPath></defs><g id="f807ebf37e"><g style="fill:#004aad;fill-opacity:1;"><g transform="translate(45.430661, 33.992645)"><path style="stroke:none" d="M 9.21875 -3.1875 L 10.09375 -0.703125 C 9.726562 -0.398438 9.269531 -0.164062 8.71875 0 C 8.175781 0.164062 7.554688 0.25 6.859375 0.25 C 5.410156 0.25 4.3125 -0.140625 3.5625 -0.921875 C 2.8125 -1.710938 2.4375 -2.859375 2.4375 -4.359375 L 2.4375 -10.71875 L 0.40625 -10.71875 L 0.40625 -13.390625 L 2.4375 -13.390625 L 2.4375 -15.984375 L 5.796875 -16.53125 L 5.796875 -13.390625 L 9.59375 -13.390625 L 9.59375 -10.71875 L 5.796875 -10.71875 L 5.796875 -4.609375 C 5.796875 -3.941406 5.929688 -3.457031 6.203125 -3.15625 C 6.484375 -2.851562 6.882812 -2.703125 7.40625 -2.703125 C 8 -2.703125 8.519531 -2.863281 8.96875 -3.1875 Z M 9.21875 -3.1875 "/></g></g><g style="fill:#004aad;fill-opacity:1;"><g transform="translate(55.818769, 33.992645)"><path style="stroke:none" d="M 7.765625 0.25 C 6.460938 0.25 5.316406 -0.015625 4.328125 -0.546875 C 3.335938 -1.085938 2.566406 -1.875 2.015625 -2.90625 C 1.472656 -3.945312 1.203125 -5.207031 1.203125 -6.6875 C 1.203125 -8.15625 1.472656 -9.410156 2.015625 -10.453125 C 2.566406 -11.492188 3.335938 -12.28125 4.328125 -12.8125 C 5.316406 -13.351562 6.460938 -13.625 7.765625 -13.625 C 9.078125 -13.625 10.226562 -13.351562 11.21875 -12.8125 C 12.207031 -12.28125 12.976562 -11.492188 13.53125 -10.453125 C 14.082031 -9.410156 14.359375 -8.15625 14.359375 -6.6875 C 14.359375 -5.207031 14.082031 -3.945312 13.53125 -2.90625 C 12.976562 -1.875 12.207031 -1.085938 11.21875 -0.546875 C 10.226562 -0.015625 9.078125 0.25 7.765625 0.25 Z M 7.765625 -2.59375 C 9.847656 -2.59375 10.890625 -3.957031 10.890625 -6.6875 C 10.890625 -8.09375 10.617188 -9.125 10.078125 -9.78125 C 9.546875 -10.445312 8.773438 -10.78125 7.765625 -10.78125 C 5.691406 -10.78125 4.65625 -9.414062 4.65625 -6.6875 C 4.65625 -3.957031 5.691406 -2.59375 7.765625 -2.59375 Z M 7.765625 -2.59375 "/></g></g><g style="fill:#004aad;fill-opacity:1;"><g transform="translate(71.358507, 33.992645)"><path style="stroke:none" d="M 1.921875 0 L 1.921875 -18.75 L 5.28125 -18.75 L 5.28125 -8.34375 L 5.609375 -8.34375 L 9.484375 -13.375 L 12.890625 -13.375 L 12.890625 -13.09375 L 8.34375 -7.21875 L 13.390625 -0.296875 L 13.390625 0 L 9.859375 0 L 5.609375 -5.640625 L 5.28125 -5.640625 L 5.28125 0 Z M 1.921875 0 "/></g></g><g style="fill:#004aad;fill-opacity:1;"><g transform="translate(84.776985, 33.992645)"><path style="stroke:none" d="M 7.765625 0.25 C 6.460938 0.25 5.316406 -0.015625 4.328125 -0.546875 C 3.335938 -1.085938 2.566406 -1.875 2.015625 -2.90625 C 1.472656 -3.945312 1.203125 -5.207031 1.203125 -6.6875 C 1.203125 -8.15625 1.472656 -9.410156 2.015625 -10.453125 C 2.566406 -11.492188 3.335938 -12.28125 4.328125 -12.8125 C 5.316406 -13.351562 6.460938 -13.625 7.765625 -13.625 C 9.078125 -13.625 10.226562 -13.351562 11.21875 -12.8125 C 12.207031 -12.28125 12.976562 -11.492188 13.53125 -10.453125 C 14.082031 -9.410156 14.359375 -8.15625 14.359375 -6.6875 C 14.359375 -5.207031 14.082031 -3.945312 13.53125 -2.90625 C 12.976562 -1.875 12.207031 -1.085938 11.21875 -0.546875 C 10.226562 -0.015625 9.078125 0.25 7.765625 0.25 Z M 7.765625 -2.59375 C 9.847656 -2.59375 10.890625 -3.957031 10.890625 -6.6875 C 10.890625 -8.09375 10.617188 -9.125 10.078125 -9.78125 C 9.546875 -10.445312 8.773438 -10.78125 7.765625 -10.78125 C 5.691406 -10.78125 4.65625 -9.414062 4.65625 -6.6875 C 4.65625 -3.957031 5.691406 -2.59375 7.765625 -2.59375 Z M 7.765625 -2.59375 "/></g></g><g style="fill:#004aad;fill-opacity:1;"><g transform="translate(100.322316, 33.992645)"><path style="stroke:none" d="M 6.09375 0.25 C 5.257812 0.25 4.484375 0.140625 3.765625 -0.078125 C 3.046875 -0.296875 2.441406 -0.597656 1.953125 -0.984375 C 1.460938 -1.378906 1.113281 -1.816406 0.90625 -2.296875 L 2.078125 -3.515625 L 2.328125 -3.515625 C 2.765625 -2.847656 3.289062 -2.347656 3.90625 -2.015625 C 4.519531 -1.679688 5.25 -1.515625 6.09375 -1.515625 C 7.082031 -1.515625 7.832031 -1.707031 8.34375 -2.09375 C 8.851562 -2.476562 9.109375 -3.015625 9.109375 -3.703125 C 9.109375 -4.222656 8.953125 -4.65625 8.640625 -5 C 8.335938 -5.34375 7.835938 -5.597656 7.140625 -5.765625 L 4.890625 -6.328125 C 3.679688 -6.617188 2.800781 -7.078125 2.25 -7.703125 C 1.695312 -8.335938 1.421875 -9.117188 1.421875 -10.046875 C 1.421875 -10.773438 1.601562 -11.40625 1.96875 -11.9375 C 2.34375 -12.476562 2.878906 -12.894531 3.578125 -13.1875 C 4.273438 -13.476562 5.109375 -13.625 6.078125 -13.625 C 7.304688 -13.625 8.269531 -13.453125 8.96875 -13.109375 C 9.675781 -12.765625 10.226562 -12.285156 10.625 -11.671875 L 9.515625 -10.578125 L 9.28125 -10.578125 C 8.84375 -11.078125 8.367188 -11.4375 7.859375 -11.65625 C 7.359375 -11.875 6.765625 -11.984375 6.078125 -11.984375 C 5.191406 -11.984375 4.515625 -11.820312 4.046875 -11.5 C 3.578125 -11.1875 3.34375 -10.734375 3.34375 -10.140625 C 3.34375 -9.597656 3.507812 -9.160156 3.84375 -8.828125 C 4.175781 -8.492188 4.753906 -8.226562 5.578125 -8.03125 L 7.796875 -7.484375 C 8.960938 -7.210938 9.800781 -6.757812 10.3125 -6.125 C 10.832031 -5.488281 11.09375 -4.6875 11.09375 -3.71875 C 11.09375 -2.9375 10.90625 -2.242188 10.53125 -1.640625 C 10.164062 -1.046875 9.601562 -0.582031 8.84375 -0.25 C 8.09375 0.0820312 7.175781 0.25 6.09375 0.25 Z M 6.09375 0.25 "/></g></g><g style="fill:#004aad;fill-opacity:1;"><g transform="translate(112.686226, 33.992645)"><path style="stroke:none" d="M 12.734375 -6.234375 L 3.546875 -6.234375 C 3.609375 -4.609375 4 -3.414062 4.71875 -2.65625 C 5.445312 -1.894531 6.441406 -1.515625 7.703125 -1.515625 C 8.648438 -1.515625 9.414062 -1.679688 10 -2.015625 C 10.582031 -2.359375 11.039062 -2.894531 11.375 -3.625 L 11.625 -3.625 L 12.90625 -2.859375 C 12.519531 -1.890625 11.898438 -1.128906 11.046875 -0.578125 C 10.191406 -0.0234375 9.078125 0.25 7.703125 0.25 C 6.410156 0.25 5.296875 0 4.359375 -0.5 C 3.429688 -1.007812 2.71875 -1.78125 2.21875 -2.8125 C 1.71875 -3.851562 1.46875 -5.144531 1.46875 -6.6875 C 1.46875 -8.195312 1.734375 -9.472656 2.265625 -10.515625 C 2.796875 -11.566406 3.519531 -12.347656 4.4375 -12.859375 C 5.351562 -13.367188 6.398438 -13.625 7.578125 -13.625 C 9.285156 -13.625 10.617188 -13.140625 11.578125 -12.171875 C 12.546875 -11.210938 13.035156 -9.78125 13.046875 -7.875 C 13.046875 -7.132812 13.03125 -6.632812 13 -6.375 Z M 11.09375 -7.875 C 11.0625 -9.300781 10.742188 -10.335938 10.140625 -10.984375 C 9.546875 -11.628906 8.691406 -11.953125 7.578125 -11.953125 C 6.398438 -11.953125 5.476562 -11.625 4.8125 -10.96875 C 4.144531 -10.320312 3.738281 -9.289062 3.59375 -7.875 Z M 11.09375 -7.875 "/></g></g><g style="fill:#004aad;fill-opacity:1;"><g transform="translate(126.941086, 33.992645)"><path style="stroke:none" d="M 2.328125 0 L 2.328125 -13.375 L 4.203125 -13.375 L 4.203125 -11.28125 L 4.46875 -11.21875 C 4.90625 -12 5.46875 -12.59375 6.15625 -13 C 6.851562 -13.414062 7.695312 -13.625 8.6875 -13.625 C 10.300781 -13.625 11.46875 -13.210938 12.1875 -12.390625 C 12.914062 -11.578125 13.28125 -10.316406 13.28125 -8.609375 L 13.28125 0 L 11.296875 0 L 11.296875 -8.5625 C 11.296875 -9.363281 11.191406 -10.007812 10.984375 -10.5 C 10.785156 -10.988281 10.46875 -11.34375 10.03125 -11.5625 C 9.601562 -11.789062 9.035156 -11.90625 8.328125 -11.90625 C 7.117188 -11.90625 6.144531 -11.503906 5.40625 -10.703125 C 4.664062 -9.910156 4.296875 -8.628906 4.296875 -6.859375 L 4.296875 0 Z M 2.328125 0 "/></g></g><g style="fill:#004aad;fill-opacity:1;"><g transform="translate(142.335366, 33.992645)"><path style="stroke:none" d="M 6.9375 0.25 C 5.863281 0.25 4.914062 -0.00390625 4.09375 -0.515625 C 3.269531 -1.023438 2.625 -1.796875 2.15625 -2.828125 C 1.695312 -3.867188 1.46875 -5.15625 1.46875 -6.6875 C 1.46875 -8.207031 1.707031 -9.488281 2.1875 -10.53125 C 2.675781 -11.570312 3.347656 -12.347656 4.203125 -12.859375 C 5.054688 -13.367188 6.046875 -13.625 7.171875 -13.625 C 8.054688 -13.625 8.851562 -13.457031 9.5625 -13.125 C 10.269531 -12.789062 10.878906 -12.238281 11.390625 -11.46875 L 11.65625 -11.515625 L 11.65625 -18.75 L 13.625 -18.75 L 13.625 0 L 11.65625 0 L 11.65625 -1.953125 L 11.390625 -2 C 10.953125 -1.332031 10.359375 -0.789062 9.609375 -0.375 C 8.867188 0.0390625 7.976562 0.25 6.9375 0.25 Z M 7.546875 -1.515625 C 8.796875 -1.515625 9.789062 -1.941406 10.53125 -2.796875 C 11.28125 -3.648438 11.65625 -4.945312 11.65625 -6.6875 C 11.65625 -8.425781 11.28125 -9.722656 10.53125 -10.578125 C 9.789062 -11.429688 8.796875 -11.859375 7.546875 -11.859375 C 6.265625 -11.859375 5.273438 -11.441406 4.578125 -10.609375 C 3.890625 -9.773438 3.546875 -8.46875 3.546875 -6.6875 C 3.546875 -3.238281 4.878906 -1.515625 7.546875 -1.515625 Z M 7.546875 -1.515625 "/></g></g><g style="fill:#004aad;fill-opacity:1;"><g transform="translate(158.299356, 33.992645)"><path style="stroke:none" d="M 3.328125 -15.953125 C 2.898438 -15.953125 2.554688 -16.082031 2.296875 -16.34375 C 2.035156 -16.601562 1.90625 -16.9375 1.90625 -17.34375 C 1.90625 -17.75 2.035156 -18.082031 2.296875 -18.34375 C 2.554688 -18.613281 2.898438 -18.75 3.328125 -18.75 C 3.742188 -18.75 4.082031 -18.613281 4.34375 -18.34375 C 4.601562 -18.082031 4.734375 -17.75 4.734375 -17.34375 C 4.734375 -16.9375 4.601562 -16.601562 4.34375 -16.34375 C 4.082031 -16.082031 3.742188 -15.953125 3.328125 -15.953125 Z M 2.328125 0 L 2.328125 -13.375 L 4.296875 -13.375 L 4.296875 0 Z M 2.328125 0 "/></g></g><g style="fill:#004aad;fill-opacity:1;"><g transform="translate(164.929805, 33.992645)"><path style="stroke:none" d="M 2.328125 0 L 2.328125 -13.375 L 4.203125 -13.375 L 4.203125 -11.28125 L 4.46875 -11.21875 C 5.082031 -12.738281 6.253906 -13.5 7.984375 -13.5 C 8.890625 -13.5 9.570312 -13.332031 10.03125 -13 L 9.515625 -11.328125 L 9.28125 -11.28125 C 8.769531 -11.53125 8.21875 -11.65625 7.625 -11.65625 C 6.5625 -11.65625 5.738281 -11.253906 5.15625 -10.453125 C 4.582031 -9.648438 4.296875 -8.351562 4.296875 -6.5625 L 4.296875 0 Z M 2.328125 0 "/></g></g><g style="fill:#004aad;fill-opacity:1;"><g transform="translate(175.257306, 33.992645)"><path style="stroke:none" d="M 3.328125 -15.953125 C 2.898438 -15.953125 2.554688 -16.082031 2.296875 -16.34375 C 2.035156 -16.601562 1.90625 -16.9375 1.90625 -17.34375 C 1.90625 -17.75 2.035156 -18.082031 2.296875 -18.34375 C 2.554688 -18.613281 2.898438 -18.75 3.328125 -18.75 C 3.742188 -18.75 4.082031 -18.613281 4.34375 -18.34375 C 4.601562 -18.082031 4.734375 -17.75 4.734375 -17.34375 C 4.734375 -16.9375 4.601562 -16.601562 4.34375 -16.34375 C 4.082031 -16.082031 3.742188 -15.953125 3.328125 -15.953125 Z M 2.328125 0 L 2.328125 -13.375 L 4.296875 -13.375 L 4.296875 0 Z M 2.328125 0 "/></g></g><g clip-rule="nonzero" clip-path="url(#672253fcc4)"><path style=" stroke:none;fill-rule:nonzero;fill:#004aad;fill-opacity:1;" d="M 35.640625 6.871094 L 11.996094 6.871094 C 8.734375 6.871094 6.082031 9.523438 6.082031 12.785156 L 6.082031 36.429688 C 6.082031 39.691406 8.734375 42.34375 11.996094 42.34375 L 35.640625 42.34375 C 38.902344 42.34375 41.554688 39.691406 41.554688 36.429688 L 41.554688 12.785156 C 41.554688 9.523438 38.902344 6.871094 35.640625 6.871094 Z M 39.46875 36.429688 C 39.46875 38.539062 37.75 40.257812 35.640625 40.257812 L 11.996094 40.257812 C 9.886719 40.257812 8.171875 38.539062 8.171875 36.429688 L 8.171875 12.785156 C 8.171875 10.675781 9.886719 8.957031 11.996094 8.957031 L 35.640625 8.957031 C 37.75 8.957031 39.46875 10.675781 39.46875 12.785156 Z M 39.46875 36.429688 "/></g><path style=" stroke:none;fill-rule:nonzero;fill:#004aad;fill-opacity:1;" d="M 34.042969 12.507812 C 33.84375 12.242188 33.535156 12.089844 33.207031 12.089844 L 14.429688 12.089844 C 14.101562 12.089844 13.792969 12.242188 13.59375 12.507812 L 10.464844 16.679688 C 10.335938 16.855469 10.257812 17.078125 10.257812 17.304688 L 10.257812 20.433594 C 10.257812 21.976562 11.097656 23.324219 12.34375 24.046875 L 12.34375 32.648438 C 12.34375 35.117188 14.351562 37.125 16.824219 37.125 C 18.0625 37.125 29.554688 37.125 30.816406 37.125 C 33.285156 37.125 35.292969 35.117188 35.292969 32.648438 L 35.292969 24.046875 C 36.539062 23.324219 37.382812 21.976562 37.382812 20.433594 L 37.382812 17.304688 C 37.382812 17.089844 37.308594 16.859375 37.171875 16.679688 Z M 33.207031 32.648438 C 33.207031 33.964844 32.132812 35.039062 30.816406 35.039062 L 27.992188 35.039062 L 27.992188 27.738281 C 27.992188 27.160156 27.523438 26.695312 26.949219 26.695312 L 20.6875 26.695312 C 20.113281 26.695312 19.644531 27.160156 19.644531 27.738281 L 19.644531 35.039062 L 16.824219 35.039062 C 15.503906 35.039062 14.429688 33.964844 14.429688 32.648438 L 14.429688 24.609375 C 15.675781 24.609375 16.792969 24.058594 17.558594 23.191406 C 18.324219 24.058594 19.445312 24.609375 20.6875 24.609375 C 21.933594 24.609375 23.054688 24.058594 23.820312 23.191406 C 24.585938 24.058594 25.703125 24.609375 26.949219 24.609375 C 28.195312 24.609375 29.3125 24.058594 30.078125 23.191406 C 30.84375 24.058594 31.960938 24.609375 33.207031 24.609375 Z M 35.292969 20.433594 C 35.292969 21.585938 34.359375 22.519531 33.207031 22.519531 C 32.058594 22.519531 31.121094 21.585938 31.121094 20.433594 L 31.121094 18.347656 C 31.121094 17.773438 30.65625 17.304688 30.078125 17.304688 C 29.503906 17.304688 29.035156 17.773438 29.035156 18.347656 L 29.035156 20.433594 C 29.035156 21.585938 28.097656 22.519531 26.949219 22.519531 C 25.796875 22.519531 24.863281 21.585938 24.863281 20.433594 L 24.863281 18.347656 C 24.863281 17.773438 24.394531 17.304688 23.820312 17.304688 C 23.242188 17.304688 22.777344 17.773438 22.777344 18.347656 L 22.777344 20.433594 C 22.777344 21.585938 21.839844 22.519531 20.6875 22.519531 C 19.539062 22.519531 18.601562 21.585938 18.601562 20.433594 L 18.601562 18.347656 C 18.601562 17.773438 18.136719 17.304688 17.558594 17.304688 C 16.984375 17.304688 16.515625 17.773438 16.515625 18.347656 L 16.515625 20.433594 C 16.515625 21.585938 15.578125 22.519531 14.429688 22.519531 C 13.277344 22.519531 12.34375 21.585938 12.34375 20.433594 L 12.34375 17.652344 L 14.949219 14.175781 L 32.6875 14.175781 L 35.292969 17.652344 Z M 35.292969 20.433594 "/></g></svg>